<?xml version="1.0" encoding="utf-8"?><svg viewBox="0 0 101 36" xmlns="http://www.w3.org/2000/svg" xmlns:xlink="http://www.w3.org/1999/xlink"><style>:root>svg{display:none}:root>svg:target{display:block}</style><svg viewBox="0 0 12 9" id="arrow-down" xmlns="http://www.w3.org/2000/svg"><path d="M6 9L.804 0h10.392L6 9z"/></svg><svg viewBox="0 0 101 31" id="arrow-right" xmlns="http://www.w3.org/2000/svg"><path d="M0 17.068h98m0 0L81.131 2M98 17.068L81.131 29" stroke="#fff" stroke-width="3"/></svg><svg viewBox="0 0 30 36" id="cart" xmlns="http://www.w3.org/2000/svg"><path d="M1.5 11.046c0-.286.27-.637.758-.637H6.53v4.318c0 1.296 1.107 2.227 2.318 2.227 1.212 0 2.319-.93 2.319-2.227V10.41h7.666v4.318c0 1.296 1.107 2.227 2.319 2.227 1.211 0 2.318-.93 2.318-2.227V10.41h4.272c.487 0 .758.351.758.636V31.5c0 1.867-1.648 3.5-3.833 3.5H5.333C3.148 35 1.5 33.367 1.5 31.5V11.046zm7.667-2.637H8.53V6.955C8.53 3.732 11.358 1 15 1s6.47 2.732 6.47 5.955v1.454h-.637V6.955c0-3.104-2.68-5.5-5.833-5.5s-5.833 2.396-5.833 5.5v1.454z" stroke="#2E2E2E" stroke-width="2"/></svg><svg viewBox="0 0 31 28" id="favorite" xmlns="http://www.w3.org/2000/svg"><path d="M27.74 3.5a9.435 9.435 0 00-12.24-.885 9.405 9.405 0 00-12.24 14.22l9 9.075a4.5 4.5 0 006.36 0l9-9.075A9.405 9.405 0 0027.74 3.5zm-2.115 11.19l-9 9a1.498 1.498 0 01-2.13 0l-9-9a6.435 6.435 0 010-9 6.405 6.405 0 019 0 1.5 1.5 0 002.13 0 6.405 6.405 0 019 0 6.435 6.435 0 010 9.03v-.03z"/></svg><svg fill="none" viewBox="0 0 19 13" id="filter" xmlns="http://www.w3.org/2000/svg"><path d="M0 2.5h18.5M0 7h18.5M0 11h18.5" stroke="#464646"/><circle cx="4" cy="2" r="2" fill="#464646"/><circle cx="13" cy="7" r="2" fill="#464646"/><circle cx="8" cy="11" r="2" fill="#464646"/></svg><svg viewBox="0 0 28 28" id="instagram" xmlns="http://www.w3.org/2000/svg"><path d="M14.17 7.333a6.667 6.667 0 100 13.334 6.667 6.667 0 000-13.334zm0 10.667a4 4 0 110-8 4 4 0 010 8zm6.667-12a1.334 1.334 0 100 2.667 1.334 1.334 0 000-2.667zm6.587 2.986a10.015 10.015 0 00-.64-3.333 7.414 7.414 0 00-4.267-4.266 10.013 10.013 0 00-3.333-.64c-1.293-.08-1.72-.08-5.013-.08-3.294 0-3.72 0-5.014.08-1.139.022-2.266.238-3.333.64a7.413 7.413 0 00-4.267 4.266 10.013 10.013 0 00-.64 3.333C.837 10.293.837 10.72.837 14c0 3.28 0 3.706.08 5.013.022 1.14.239 2.267.64 3.333a7.414 7.414 0 004.267 4.267c1.067.402 2.194.618 3.333.64 1.334 0 1.72.08 5.014.08 3.293 0 3.72 0 5.013-.08a10.015 10.015 0 003.333-.64 7.415 7.415 0 004.267-4.267c.402-1.066.618-2.193.64-3.333 0-1.333.08-1.733.08-5.013s0-3.707-.08-5.014zm-2.667 9.907a8 8 0 01-.466 2.48c-.236.63-.61 1.2-1.094 1.667a4.346 4.346 0 01-1.666 1.08 7.665 7.665 0 01-2.494.48c-1.253 0-1.64.066-4.88.066H9.291a8 8 0 01-2.494-.466c-.63-.236-1.199-.61-1.666-1.093a4.347 4.347 0 01-1.08-1.667 7.653 7.653 0 01-.48-2.48v-4.894-4.893a7.813 7.813 0 01.48-2.493 4.4 4.4 0 011.08-1.653 4.347 4.347 0 011.666-1.08 7.667 7.667 0 012.494-.48c1.253-.134 1.64-.134 4.88-.134h4.88a7.827 7.827 0 012.506.48 4.4 4.4 0 011.654 1.08 4.346 4.346 0 011.08 1.667c.326.811.511 1.673.546 2.547 0 1.333.067 1.666.067 4.893s-.067 3.613-.067 4.893h-.08z"/></svg><svg viewBox="0 0 31 30" id="search" xmlns="http://www.w3.org/2000/svg"><path d="M29.8 27.509l-5.444-5.4a13.208 13.208 0 10-2.04 2.04l5.4 5.4a1.468 1.468 0 002.085 0 1.467 1.467 0 000-2.04zm-15.716-3.36a10.272 10.272 0 110-20.545 10.272 10.272 0 010 20.544z"/></svg><svg viewBox="0 0 28 28" id="telegram" xmlns="http://www.w3.org/2000/svg"><path d="M26.514 1.237a2.45 2.45 0 00-1.229-.599 2.36 2.36 0 00-1.339.167L1.8 10.452a2.58 2.58 0 00-1.156 1.034 2.886 2.886 0 00-.407 1.56c.014.552.183 1.087.485 1.533.303.446.723.782 1.207.964l4.48 1.681 2.497 8.909c.034.119.083.232.146.336.01.016.023.028.033.044a1.277 1.277 0 00.348.354c.117.084.247.145.384.181l.014.002.009.003c.082.018.165.028.25.028.008 0 .015-.004.023-.005.126-.002.252-.026.372-.07.028-.01.052-.027.079-.04.09-.04.174-.09.252-.152l.188-.17 3.34-3.979 4.98 4.163c.438.369.978.569 1.534.57.582-.002 1.146-.218 1.598-.615a2.78 2.78 0 00.883-1.563l4.032-21.355a2.91 2.91 0 00-.091-1.442 2.719 2.719 0 00-.766-1.186zM10.58 17.648a1.359 1.359 0 00-.337.675l-.383 2.005-.969-3.457 5.024-2.823-3.335 3.6zm10.258 7.072l-5.885-4.92a1.175 1.175 0 00-.865-.273c-.31.03-.598.184-.808.433l-1.07 1.273.379-1.982 8.753-9.444a1.41 1.41 0 00.123-1.732 1.234 1.234 0 00-.716-.51 1.155 1.155 0 00-.852.117L7.335 14.74l-4.602-1.817 22.217-9.59L20.84 24.72z"/></svg><svg viewBox="0 0 30 32" id="user" xmlns="http://www.w3.org/2000/svg"><path d="M20.565 17.065a9 9 0 10-11.13 0 15 15 0 00-9.33 12.27 1.51 1.51 0 003 .33 12 12 0 0123.85 0 1.5 1.5 0 001.5 1.335h.165a1.5 1.5 0 001.32-1.65 15 15 0 00-9.375-12.285zM15 16a6 6 0 110-12 6 6 0 010 12z"/></svg></svg>